<?xml version="1.0" standalone="no"?>
<svg xmlns:xlink="http://www.w3.org/1999/xlink" id="wave" style="transform:rotate(180deg); transition: 0.3s" viewBox="0 0 1440 100" version="1.1" xmlns="http://www.w3.org/2000/svg"><defs><linearGradient id="sw-gradient-0" x1="0" x2="0" y1="1" y2="0"><stop stop-color="rgba(255, 249, 234, 1)" offset="0%"/><stop stop-color="rgba(255, 249, 234, 1)" offset="100%"/></linearGradient></defs><path style="transform:translate(0, 0px); opacity:1" fill="url(#sw-gradient-0)" d="M0,90L21.8,75C43.6,60,87,30,131,26.7C174.5,23,218,47,262,56.7C305.5,67,349,63,393,63.3C436.4,63,480,67,524,71.7C567.3,77,611,83,655,86.7C698.2,90,742,90,785,83.3C829.1,77,873,63,916,50C960,37,1004,23,1047,16.7C1090.9,10,1135,10,1178,21.7C1221.8,33,1265,57,1309,55C1352.7,53,1396,27,1440,23.3C1483.6,20,1527,40,1571,55C1614.5,70,1658,80,1702,78.3C1745.5,77,1789,63,1833,51.7C1876.4,40,1920,30,1964,21.7C2007.3,13,2051,7,2095,13.3C2138.2,20,2182,40,2225,55C2269.1,70,2313,80,2356,76.7C2400,73,2444,57,2487,45C2530.9,33,2575,27,2618,25C2661.8,23,2705,27,2749,31.7C2792.7,37,2836,43,2880,53.3C2923.6,63,2967,77,3011,76.7C3054.5,77,3098,63,3120,56.7L3141.8,50L3141.8,100L3120,100C3098.2,100,3055,100,3011,100C2967.3,100,2924,100,2880,100C2836.4,100,2793,100,2749,100C2705.5,100,2662,100,2618,100C2574.5,100,2531,100,2487,100C2443.6,100,2400,100,2356,100C2312.7,100,2269,100,2225,100C2181.8,100,2138,100,2095,100C2050.9,100,2007,100,1964,100C1920,100,1876,100,1833,100C1789.1,100,1745,100,1702,100C1658.2,100,1615,100,1571,100C1527.3,100,1484,100,1440,100C1396.4,100,1353,100,1309,100C1265.5,100,1222,100,1178,100C1134.5,100,1091,100,1047,100C1003.6,100,960,100,916,100C872.7,100,829,100,785,100C741.8,100,698,100,655,100C610.9,100,567,100,524,100C480,100,436,100,393,100C349.1,100,305,100,262,100C218.2,100,175,100,131,100C87.3,100,44,100,22,100L0,100Z"/></svg>